<svg id="Capa_1" enable-background="new 0 0 511.922 511.922" height="512" viewBox="0 0 511.922 511.922" width="512" xmlns="http://www.w3.org/2000/svg"><g><g><path d="m286.899 357.941c-10.99 9.78-23.08 17.35-36.78 20.88-12.9 3.35-22.11 14.72-22.93 28.02-1.43 23.4-10.54 45.63-27.57 62.65-40.35 40.36-109.87 36.27-155.28-9.14-3.6-3.6-6.94-7.36-10.02-11.25-35.76-45-36.27-106.88.88-144.03 17.03-17.02 39.25-26.13 62.65-27.57 13.3-.82 24.67-10.03 28.02-22.93 0 0 9.87-40.98 41.81-64.94 6.19-4.64 11.38-7.87 15.75-10.02 18.23-9 22.27.7 24.68 5.53 2.79 5.6-20.17 45.58-.27 69.98l.03.04c1.11 1.14.96 1.35 3.26 3.46.48.44 1.06.96 1.79 1.59l19.46 19.46.32 12.94.37 15.22s29.81 10.04 45.81 10.08h.11c15.97 0 35.29 15.67 7.91 40.03z" fill="#0078c8"/><path d="m278.879 317.911c-1.33 5.42-5.34 11.73-13.24 18.76-11 9.78-23.09 17.35-36.79 20.89-12.9 3.33-22.11 14.71-22.92 28.01-1.44 23.41-10.56 45.62-27.58 62.64-37.16 37.16-99.02 36.63-144.03.89-35.76-45-36.27-106.88.88-144.03 17.03-17.02 39.25-26.13 62.65-27.57 13.3-.82 24.67-10.03 28.02-22.93 0 0 9.87-40.98 41.81-64.94 6.19-4.64 11.38-7.87 15.75-10.02-4.97 17.01-11.2 43.32 8.21 59.32l16.2 16.19.03.04c1.11 1.14.96 1.35 3.26 3.46l.67 27.93s9.64 3.25 20.9 6.06l.37 15.22s29.81 10.04 45.81 10.08z" fill="#3c87d0"/><path d="m164.192 456.123c-21.792 9.394-48.663-14.298-48.663-14.298l-19.352-19.352-33.317-33.301 76.893-64.018 45.333-43.791c.013 21.211 19.904 27.277 32.243 43.195 5.627 3.513 12.438 5.635 18.979 7.248 12.947 3.235 24.765 4.514 23.898 10.88-2.496 18.47-26.108 5.921-48.417 32.442-15.854 18.86-2.042 61.348-47.597 80.995z" fill="#fedba6"/><path d="m144.839 436.77c-21.792 9.394-48.663-14.298-48.663-14.298l-33.316-33.3 76.893-64.018 45.333-43.791c.013 21.211 19.904 27.277 32.243 43.195 5.627 3.513 12.438 5.635 18.979 7.248-8.369 6.35-26.513 3.338-43.871 23.97-15.855 18.86-2.042 61.348-47.598 80.994z" fill="#ffefd2"/><path d="m179.086 364.481-39.334-39.333 255.163-246.431 29.873 29.873z" fill="#596c76"/><path d="m161.601 346.996-21.849-21.848 255.163-246.431 16.363 16.362z" fill="#7a8c98"/><path d="m43.584 412.037h74.477v23.666h-74.477z" fill="#e5e1e5" transform="matrix(.707 .707 -.707 .707 323.394 66.999)"/><path d="m82.156 428.014h29.287v23.666h-29.287z" fill="#baafb9" transform="matrix(.707 .707 -.707 .707 339.371 60.381)"/><path d="m439.72 107.699-14.926.89-29.875-29.875 13.519-28.667c1.271-2.686 3.481-4.816 6.207-6l65.624-28.27c.278-.119.564-.231.85-.326 1.804-.612 3.735-.747 5.627-.382l13.145 2.511c4.006.763 5.857 5.444 3.457 8.734l-56.19 77.314c-1.748 2.402-4.474 3.904-7.438 4.071z" fill="#0078c8"/><path d="m422.275 90.254-14.926.89-12.43-12.43 13.519-28.667c1.271-2.686 3.481-4.816 6.207-6l65.624-28.27c.278-.119.564-.231.85-.326l-51.405 70.734c-1.749 2.4-4.475 3.902-7.439 4.069z" fill="#3c87d0"/></g><g><path d="m370.078 154.741-191.101 199.025-28.525-28.525 6.911-6.674c6.974-6.738-3.445-17.527-10.42-10.79l-88.794 75.559c-.203.164-.416.354-.593.532l-16.736 16.734c-2.929 2.929-2.929 7.678 0 10.606l52.664 52.664c3.535 2.929 7.071 2.929 10.606 0l12.065-12.065c14.111 10.091 33.802 18.619 51.006 11.202 33.221-14.327 38.537-40.674 42.419-59.912 4.453-22.073 14.851-34.209 36.749-40.229 9.824-2.701 20.514-7.4 21.31-19.183.861-12.732-13.336-15.429-23.043-17.625-4.716-1.067-9.806-2.222-14.529-3.848l5.483-5.71c9.325 2.906 30.072 8.873 43.328 8.908 21.285-.028 12.837 18.205 3.034 26.927-11.224 9.988-22.236 16.275-33.68 19.223-16.038 4.165-27.503 18.157-28.531 34.822-1.381 22.598-10.159 42.585-25.388 57.805-40.558 40.568-106.856 28.676-144.673-9.141-3.342-3.342-6.519-6.909-9.452-10.613-27.783-34.963-33.164-81.639-13.389-116.147 4.822-8.414-8.192-15.871-13.015-7.458-22.801 39.787-16.909 93.211 14.654 132.929 3.282 4.145 6.847 8.148 10.597 11.897 43.665 43.666 119.492 55.546 165.885 9.142 17.858-17.847 28.146-41.188 29.754-67.493.627-10.165 7.591-18.694 17.315-21.219 13.796-3.554 26.846-10.927 39.895-22.539 9.322-8.294 19.03-20.525 15.577-33.878-3.211-12.418-16.454-19.259-28.562-19.256-8.07-.021-21.152-3.1-31.662-6.078l133.661-139.204c6.716-6.995-4.104-17.383-10.82-10.388zm-271.291 293.222-42.057-42.057 6.128-6.128 42.057 42.057zm142.501-107.271c3.676.831 7.535 1.519 11.039 2.953-1.264 3.107-7.378 4.047-9.973 4.761-27.275 7.499-41.928 24.229-47.476 51.726-3.759 18.626-7.646 37.888-33.655 49.104-14.1 6.075-33.905-7.122-40.573-12.896l-46.676-46.662 15.777-13.136 36.639 36.639c6.857 6.857 17.464-3.75 10.606-10.606l-35.67-35.67 17.174-14.298 34.232 34.232c6.857 6.857 17.464-3.75 10.606-10.606l-33.263-33.263 9.217-7.674 34.489 34.489c2.967 2.967 7.8 2.926 10.713-.109l34.377-35.802c7.416 3.419 15.58 5.272 22.417 6.818z"/><path d="m510.998 18.24c-1.655-4.182-5.28-7.183-9.697-8.027-7.601-1.453-16.485-4.565-23.995-1.326l-65.627 28.276c-4.412 1.902-7.971 5.342-10.021 9.687l-12.94 27.427-177.902 171.812c-7.538-14.264-1.584-34.197 2.115-46.58 6.939-23.224-9.421-38.175-32.813-26.628-30.604 15.059-53.47 46.98-61.521 79.856-2.545 9.712-11.062 16.652-21.208 17.278-21.832 1.344-42.06 8.874-58.496 21.775-7.744 6.077 1.817 17.645 9.262 11.799 14.032-11.014 31.375-17.447 50.157-18.603 16.661-1.027 30.653-12.493 34.818-28.531 7.489-28.654 26.624-56.837 53.621-70.12 10.599-5.233 15.175-2.39 11.81 8.879-4.387 14.685-12.349 41.39 1.198 61.555l-27.483 26.542c-6.992 6.753 3.471 17.501 10.42 10.79l212.128-204.869 19.464 19.464-20.181 21.018c-6.716 6.995 4.104 17.384 10.82 10.389l23.236-24.2c10.132.272 21.377-.968 27.032-10.573l3.663 3.663c6.857 6.857 17.464-3.75 10.606-10.606l-5.341-5.341 6.25-8.599 6.516 6.516c6.857 6.857 17.464-3.75 10.606-10.606l-8.194-8.194 6.25-8.599 9.368 9.368c6.857 6.857 17.464-3.75 10.606-10.606l-11.046-11.046 14.935-20.549c2.647-3.64 3.238-8.309 1.584-12.491zm-27.255 22.3-2.501-2.501c-6.857-6.857-17.464 3.75-10.606 10.606l4.179 4.179-6.25 8.599-5.354-5.354c-6.857-6.857-17.464 3.75-10.606 10.606l7.032 7.032-6.25 8.599-8.207-8.207c-6.857-6.857-17.464 3.75-10.606 10.606l9.885 9.885c-3.157 6.716-10.017 6.826-16.749 6.312l-23.76-23.757 11.273-23.896c.489-1.037 1.338-1.858 2.391-2.312l65.627-28.276c3.088-1.33 9.264.854 12.251 1.712z"/><circle cx="156.732" cy="262.078" r="8.41"/><path d="m161.56 246.213c.787.262 1.586.387 2.373.387 3.14 0 6.066-1.988 7.114-5.13l5.547-16.642c1.31-3.93-.814-8.177-4.744-9.487-3.929-1.311-8.177.814-9.487 4.744l-5.547 16.642c-1.31 3.928.814 8.176 4.744 9.486z"/></g></g></svg>